<?xml version="1.0" encoding="UTF-8" standalone="no"?>
<!DOCTYPE svg PUBLIC "-//W3C//DTD SVG 1.1//EN" "http://www.w3.org/Graphics/SVG/1.1/DTD/svg11.dtd">
<svg style="height:25px; margin-right:10px;" xmlns="http://www.w3.org/2000/svg" version="1.1" viewBox="0.00 0.00 500.00 500.00">
<style>
    @keyframes colorChange {
      0% {
        fill: #FFFFFF;
      }
      50% {
        fill: #2dcbeb;
      }
      100% {
        fill: #FFFFFF;
      }
    }

    #logo {
      fill: #FFFFFF;
      /*animation: colorChange 10s infinite;*/
    }
</style>
<g stroke-width="2.00" fill="none" stroke-linecap="butt">
<path stroke="#929bad" vector-effect="non-scaling-stroke" d="
  M 137.43 349.27
  L 136.48 351.51
  Q 136.19 352.20 136.93 352.31
  Q 137.26 352.36 137.61 352.28
  Q 138.45 352.09 138.17 352.90
  Q 137.95 353.53 137.47 354.09
  Q 136.87 354.80 137.80 354.85
  L 138.23 354.88
  Q 139.22 354.93 138.72 355.78
  Q 138.24 356.60 139.07 356.91
  Q 139.47 357.05 139.68 357.42
  C 141.51 360.58 142.78 363.72 146.28 365.49
  Q 148.47 366.59 150.38 368.19
  Q 150.76 368.51 151.24 368.34
  Q 151.56 368.23 151.81 367.98
  Q 152.18 367.63 152.68 367.70
  C 154.92 368.04 156.90 368.97 159.21 369.08
  Q 161.61 369.19 164.22 369.19
  Q 180.58 369.23 198.89 369.16
  Q 199.55 369.16 199.28 368.56
  Q 198.63 367.08 199.08 365.57
  Q 199.24 365.04 198.93 364.59
  Q 197.61 362.60 196.36 360.49
  C 194.13 356.74 188.35 354.12 184.36 352.54
  Q 183.48 352.19 183.13 351.31
  L 180.77 345.31
  Q 180.49 344.62 180.77 343.94
  C 183.24 337.83 186.71 333.11 190.90 328.29
  C 195.59 322.89 199.30 316.29 202.31 309.79
  Q 203.45 307.35 205.24 305.77
  Q 205.65 305.41 206.19 305.37
  Q 210.26 305.02 214.26 305.06
  Q 230.68 305.22 248.64 305.22
  Q 250.26 305.22 250.16 303.61
  C 249.89 299.37 248.22 295.95 249.15 291.12
  A 1.80 1.76 -54.0 0 0 248.98 289.95
  C 247.93 287.96 246.82 284.91 248.08 282.79
  Q 248.68 281.78 249.10 280.69
  Q 249.36 280.03 250.04 279.81
  Q 253.45 278.71 256.93 279.59
  Q 257.50 279.73 257.66 280.29
  Q 258.76 283.99 258.97 287.76
  C 259.07 289.53 259.89 290.97 259.83 292.77
  Q 259.69 296.92 260.43 300.69
  C 261.43 305.76 260.80 310.79 261.24 315.84
  Q 261.77 321.78 261.87 327.43
  Q 261.98 333.30 263.45 342.66
  Q 263.68 344.12 263.35 345.77
  Q 263.25 346.22 263.47 346.62
  Q 264.32 348.17 263.81 350.04
  Q 263.67 350.59 264.18 350.82
  Q 264.35 350.90 264.54 350.92
  Q 265.33 351.01 265.08 351.77
  L 264.78 352.67
  A 0.90 0.88 34.7 0 0 264.94 353.51
  Q 266.13 354.99 267.00 356.74
  Q 269.26 361.24 274.15 364.80
  Q 276.82 366.74 282.37 367.75
  Q 290.24 369.18 295.56 369.22
  Q 310.28 369.32 322.89 369.14
  Q 323.54 369.13 323.31 368.52
  Q 322.63 366.72 323.34 364.94
  Q 323.64 364.22 322.87 364.15
  Q 322.34 364.10 322.30 363.57
  Q 322.29 363.32 322.44 363.13
  Q 322.98 362.45 322.11 362.39
  Q 321.79 362.37 321.50 362.15
  Q 321.08 361.84 320.87 361.36
  L 319.81 358.98
  A 1.80 1.78 -84.2 0 0 319.26 358.30
  Q 314.91 355.20 312.83 354.17
  Q 309.66 352.61 307.98 351.11
  Q 305.97 349.31 306.13 345.69
  A 2.51 2.50 24.1 0 0 305.42 343.85
  Q 304.08 342.47 305.59 341.11
  A 1.65 1.64 -20.6 0 0 306.12 339.95
  L 306.23 335.90
  Q 306.24 335.37 306.60 334.98
  Q 307.66 333.84 307.11 332.19
  Q 306.94 331.70 307.36 331.37
  Q 307.96 330.90 308.11 330.13
  Q 310.31 318.52 317.27 303.54
  Q 334.96 265.49 357.74 237.53
  C 359.92 234.85 361.30 233.47 364.84 233.38
  Q 374.25 233.12 382.44 233.18
  Q 385.11 233.21 387.42 231.98
  Q 392.92 229.05 395.65 222.61
  Q 396.19 221.34 394.82 221.52
  Q 391.92 221.90 387.88 221.66
  Q 384.97 221.49 384.36 218.92
  A 0.99 0.98 -3.7 0 0 383.50 218.17
  Q 382.62 218.08 382.48 217.25
  Q 382.36 216.59 383.03 216.68
  Q 383.30 216.71 383.55 216.60
  Q 384.06 216.37 384.02 215.81
  Q 383.91 214.37 385.31 214.30
  Q 390.29 214.07 395.18 214.38
  Q 395.81 214.42 395.62 213.81
  Q 394.85 211.45 393.92 209.35
  C 393.34 208.05 391.98 207.52 391.20 206.26
  Q 390.50 205.10 389.46 204.10
  C 386.30 201.02 387.05 196.10 387.07 192.29
  C 387.17 176.90 374.75 169.48 361.05 165.94
  Q 360.47 165.79 359.90 166.02
  Q 358.74 166.48 358.14 165.44
  Q 357.83 164.91 357.22 164.91
  L 343.61 164.88
  Q 343.19 164.88 342.90 165.18
  Q 342.72 165.37 342.67 165.61
  Q 342.51 166.35 341.77 166.19
  L 339.04 165.58
  Q 338.27 165.41 338.14 166.20
  L 338.02 166.86
  Q 337.88 167.73 337.15 167.24
  L 336.82 167.01
  Q 336.36 166.69 335.85 166.91
  L 330.97 168.93
  Q 330.50 169.12 330.12 169.45
  C 325.30 173.51 320.95 166.78 318.66 163.14
  Q 318.40 162.73 317.92 162.65
  Q 317.51 162.58 317.14 162.76
  A 0.80 0.79 50.9 0 1 316.31 162.67
  Q 314.98 161.66 312.83 161.93
  C 311.27 162.13 310.65 162.98 309.27 163.23
  C 305.54 163.90 301.90 167.51 301.70 171.67
  Q 301.38 177.93 303.85 182.29
  Q 304.11 182.76 304.59 183.03
  C 306.32 183.99 309.75 185.34 309.54 187.73
  Q 309.50 188.18 309.12 188.44
  Q 306.94 189.89 305.14 192.12
  C 302.52 195.37 300.27 191.88 298.98 189.88
  Q 298.71 189.46 298.22 189.49
  Q 296.71 189.58 295.25 190.03
  Q 289.76 191.71 284.22 193.13
  C 276.92 194.98 270.19 194.88 263.00 193.78
  Q 256.99 192.86 251.00 191.88
  Q 246.11 191.09 241.15 190.81
  C 240.58 190.77 240.21 190.53 239.75 190.23
  Q 239.28 189.93 238.73 189.94
  Q 234.93 189.97 231.39 189.48
  Q 223.35 188.36 212.79 189.06
  Q 211.66 189.14 210.63 189.52
  C 208.83 190.18 206.53 189.75 204.60 189.71
  A 0.61 0.61 0.0 0 0 203.99 190.43
  Q 204.08 190.89 203.69 191.12
  Q 203.27 191.37 202.79 191.21
  Q 201.27 190.70 199.66 190.72
  Q 199.02 190.73 198.81 191.34
  Q 198.33 192.73 196.96 192.04
  Q 194.97 191.03 194.03 192.79
  Q 193.77 193.30 193.25 193.06
  L 192.89 192.90
  Q 192.38 192.66 191.83 192.82
  Q 166.93 199.99 150.38 216.90
  Q 139.09 228.44 132.91 244.48
  Q 131.69 247.67 130.74 251.28
  C 128.94 258.10 128.65 264.87 128.61 271.96
  Q 128.61 272.57 129.22 272.53
  C 131.20 272.42 131.67 270.32 132.55 268.93
  A 1.37 1.36 15.6 0 1 133.66 268.31
  L 138.81 268.14
  Q 139.33 268.12 139.68 268.51
  Q 140.48 269.38 139.91 270.50
  Q 139.67 270.98 140.11 271.28
  Q 141.58 272.26 141.07 274.46
  C 140.49 277.00 140.20 279.57 140.15 282.18
  Q 139.82 301.35 138.56 321.13
  Q 138.43 323.10 138.04 324.48
  Q 137.57 326.14 138.27 327.47
  Q 138.71 328.30 137.77 328.19
  L 137.04 328.11
  A 0.52 0.52 0.0 0 0 136.46 328.67
  Q 136.60 330.28 137.34 331.72
  Q 137.59 332.20 137.36 332.69
  Q 137.20 333.05 136.80 333.09
  Q 136.52 333.12 136.32 332.94
  Q 136.28 332.91 136.25 332.87
  Q 135.75 332.33 135.77 333.09
  Q 135.94 340.77 135.79 348.31
  Q 135.78 348.77 136.24 348.82
  Q 136.52 348.85 136.78 348.72
  Q 137.91 348.14 137.43 349.27"
/>
<path stroke="#929bad" vector-effect="non-scaling-stroke" d="
  M 361.14 190.66
  Q 359.91 189.72 358.53 190.79
  Q 354.84 193.66 356.52 197.69
  Q 356.69 198.10 357.06 198.36
  Q 358.28 199.22 359.13 200.35
  A 0.93 0.93 0.0 0 0 360.68 200.27
  L 361.22 199.34
  Q 361.50 198.86 361.99 198.60
  Q 363.36 197.89 363.66 196.38
  C 364.18 193.73 363.06 192.15 361.14 190.66"
/>
</g>
<path fill="#26385b" d="
  M 249.99 316.73
  A 0.73 0.73 0.0 0 0 249.26 316.00
  L 224.49 315.98
  Q 223.15 315.98 222.49 317.14
  Q 216.74 327.12 214.50 337.34
  Q 213.76 340.73 214.27 343.98
  C 214.65 346.37 216.12 351.22 218.94 351.81
  Q 220.48 352.13 222.14 352.06
  C 233.14 351.59 240.46 363.47 239.11 373.37
  C 238.54 377.55 235.64 380.01 231.35 380.01
  Q 191.08 379.98 155.75 380.07
  C 144.93 380.09 137.35 373.37 131.18 365.26
  Q 124.89 356.98 124.86 346.99
  Q 124.83 338.61 125.40 330.76
  Q 125.63 327.63 126.53 324.55
  Q 127.36 321.74 127.56 318.93
  Q 128.33 308.26 127.90 298.58
  C 127.80 296.16 127.73 293.84 126.39 291.73
  C 122.33 285.36 118.39 277.98 117.92 270.22
  Q 117.18 257.92 119.05 250.50
  C 122.23 237.87 128.53 226.56 136.37 216.19
  C 149.88 198.33 173.01 184.89 193.78 180.54
  Q 215.54 175.98 237.80 178.70
  Q 248.49 180.00 259.19 181.28
  Q 271.07 182.70 283.70 181.47
  C 285.95 181.25 289.92 180.12 289.84 177.11
  Q 289.76 174.02 290.09 170.91
  C 291.19 160.52 300.24 151.66 310.82 151.70
  Q 314.55 151.72 318.03 151.97
  C 321.65 152.24 324.51 154.32 327.46 156.21
  Q 328.97 157.19 330.53 156.59
  Q 335.65 154.65 340.85 154.30
  Q 349.78 153.70 358.42 154.08
  Q 363.36 154.30 368.98 156.54
  C 370.51 157.15 371.71 156.60 372.92 155.68
  C 375.48 153.75 379.00 154.00 381.98 153.79
  Q 393.12 153.01 399.03 163.67
  C 401.90 168.85 401.63 175.26 399.18 180.24
  Q 398.31 182.02 398.23 183.74
  Q 398.00 189.03 397.93 194.15
  C 397.90 196.26 398.19 197.58 399.75 199.20
  Q 408.20 207.90 408.13 218.66
  C 408.06 230.40 395.51 243.54 383.79 243.90
  Q 378.14 244.07 371.70 244.01
  C 368.93 243.99 366.27 246.87 364.12 249.50
  C 353.68 262.25 344.25 277.63 336.06 292.96
  Q 325.33 313.06 319.20 333.44
  C 317.91 337.73 316.11 343.17 321.01 346.05
  Q 330.76 351.77 334.33 361.97
  Q 335.67 365.78 335.23 372.62
  C 334.87 378.04 330.88 379.97 326.12 379.98
  Q 305.09 380.04 287.14 380.12
  Q 276.02 380.16 268.03 374.17
  Q 260.14 368.26 256.01 360.85
  C 253.12 355.66 251.48 349.14 250.98 343.10
  Q 249.88 329.98 249.99 316.73
  Z
  M 137.43 349.27
  L 136.48 351.51
  Q 136.19 352.20 136.93 352.31
  Q 137.26 352.36 137.61 352.28
  Q 138.45 352.09 138.17 352.90
  Q 137.95 353.53 137.47 354.09
  Q 136.87 354.80 137.80 354.85
  L 138.23 354.88
  Q 139.22 354.93 138.72 355.78
  Q 138.24 356.60 139.07 356.91
  Q 139.47 357.05 139.68 357.42
  C 141.51 360.58 142.78 363.72 146.28 365.49
  Q 148.47 366.59 150.38 368.19
  Q 150.76 368.51 151.24 368.34
  Q 151.56 368.23 151.81 367.98
  Q 152.18 367.63 152.68 367.70
  C 154.92 368.04 156.90 368.97 159.21 369.08
  Q 161.61 369.19 164.22 369.19
  Q 180.58 369.23 198.89 369.16
  Q 199.55 369.16 199.28 368.56
  Q 198.63 367.08 199.08 365.57
  Q 199.24 365.04 198.93 364.59
  Q 197.61 362.60 196.36 360.49
  C 194.13 356.74 188.35 354.12 184.36 352.54
  Q 183.48 352.19 183.13 351.31
  L 180.77 345.31
  Q 180.49 344.62 180.77 343.94
  C 183.24 337.83 186.71 333.11 190.90 328.29
  C 195.59 322.89 199.30 316.29 202.31 309.79
  Q 203.45 307.35 205.24 305.77
  Q 205.65 305.41 206.19 305.37
  Q 210.26 305.02 214.26 305.06
  Q 230.68 305.22 248.64 305.22
  Q 250.26 305.22 250.16 303.61
  C 249.89 299.37 248.22 295.95 249.15 291.12
  A 1.80 1.76 -54.0 0 0 248.98 289.95
  C 247.93 287.96 246.82 284.91 248.08 282.79
  Q 248.68 281.78 249.10 280.69
  Q 249.36 280.03 250.04 279.81
  Q 253.45 278.71 256.93 279.59
  Q 257.50 279.73 257.66 280.29
  Q 258.76 283.99 258.97 287.76
  C 259.07 289.53 259.89 290.97 259.83 292.77
  Q 259.69 296.92 260.43 300.69
  C 261.43 305.76 260.80 310.79 261.24 315.84
  Q 261.77 321.78 261.87 327.43
  Q 261.98 333.30 263.45 342.66
  Q 263.68 344.12 263.35 345.77
  Q 263.25 346.22 263.47 346.62
  Q 264.32 348.17 263.81 350.04
  Q 263.67 350.59 264.18 350.82
  Q 264.35 350.90 264.54 350.92
  Q 265.33 351.01 265.08 351.77
  L 264.78 352.67
  A 0.90 0.88 34.7 0 0 264.94 353.51
  Q 266.13 354.99 267.00 356.74
  Q 269.26 361.24 274.15 364.80
  Q 276.82 366.74 282.37 367.75
  Q 290.24 369.18 295.56 369.22
  Q 310.28 369.32 322.89 369.14
  Q 323.54 369.13 323.31 368.52
  Q 322.63 366.72 323.34 364.94
  Q 323.64 364.22 322.87 364.15
  Q 322.34 364.10 322.30 363.57
  Q 322.29 363.32 322.44 363.13
  Q 322.98 362.45 322.11 362.39
  Q 321.79 362.37 321.50 362.15
  Q 321.08 361.84 320.87 361.36
  L 319.81 358.98
  A 1.80 1.78 -84.2 0 0 319.26 358.30
  Q 314.91 355.20 312.83 354.17
  Q 309.66 352.61 307.98 351.11
  Q 305.97 349.31 306.13 345.69
  A 2.51 2.50 24.1 0 0 305.42 343.85
  Q 304.08 342.47 305.59 341.11
  A 1.65 1.64 -20.6 0 0 306.12 339.95
  L 306.23 335.90
  Q 306.24 335.37 306.60 334.98
  Q 307.66 333.84 307.11 332.19
  Q 306.94 331.70 307.36 331.37
  Q 307.96 330.90 308.11 330.13
  Q 310.31 318.52 317.27 303.54
  Q 334.96 265.49 357.74 237.53
  C 359.92 234.85 361.30 233.47 364.84 233.38
  Q 374.25 233.12 382.44 233.18
  Q 385.11 233.21 387.42 231.98
  Q 392.92 229.05 395.65 222.61
  Q 396.19 221.34 394.82 221.52
  Q 391.92 221.90 387.88 221.66
  Q 384.97 221.49 384.36 218.92
  A 0.99 0.98 -3.7 0 0 383.50 218.17
  Q 382.62 218.08 382.48 217.25
  Q 382.36 216.59 383.03 216.68
  Q 383.30 216.71 383.55 216.60
  Q 384.06 216.37 384.02 215.81
  Q 383.91 214.37 385.31 214.30
  Q 390.29 214.07 395.18 214.38
  Q 395.81 214.42 395.62 213.81
  Q 394.85 211.45 393.92 209.35
  C 393.34 208.05 391.98 207.52 391.20 206.26
  Q 390.50 205.10 389.46 204.10
  C 386.30 201.02 387.05 196.10 387.07 192.29
  C 387.17 176.90 374.75 169.48 361.05 165.94
  Q 360.47 165.79 359.90 166.02
  Q 358.74 166.48 358.14 165.44
  Q 357.83 164.91 357.22 164.91
  L 343.61 164.88
  Q 343.19 164.88 342.90 165.18
  Q 342.72 165.37 342.67 165.61
  Q 342.51 166.35 341.77 166.19
  L 339.04 165.58
  Q 338.27 165.41 338.14 166.20
  L 338.02 166.86
  Q 337.88 167.73 337.15 167.24
  L 336.82 167.01
  Q 336.36 166.69 335.85 166.91
  L 330.97 168.93
  Q 330.50 169.12 330.12 169.45
  C 325.30 173.51 320.95 166.78 318.66 163.14
  Q 318.40 162.73 317.92 162.65
  Q 317.51 162.58 317.14 162.76
  A 0.80 0.79 50.9 0 1 316.31 162.67
  Q 314.98 161.66 312.83 161.93
  C 311.27 162.13 310.65 162.98 309.27 163.23
  C 305.54 163.90 301.90 167.51 301.70 171.67
  Q 301.38 177.93 303.85 182.29
  Q 304.11 182.76 304.59 183.03
  C 306.32 183.99 309.75 185.34 309.54 187.73
  Q 309.50 188.18 309.12 188.44
  Q 306.94 189.89 305.14 192.12
  C 302.52 195.37 300.27 191.88 298.98 189.88
  Q 298.71 189.46 298.22 189.49
  Q 296.71 189.58 295.25 190.03
  Q 289.76 191.71 284.22 193.13
  C 276.92 194.98 270.19 194.88 263.00 193.78
  Q 256.99 192.86 251.00 191.88
  Q 246.11 191.09 241.15 190.81
  C 240.58 190.77 240.21 190.53 239.75 190.23
  Q 239.28 189.93 238.73 189.94
  Q 234.93 189.97 231.39 189.48
  Q 223.35 188.36 212.79 189.06
  Q 211.66 189.14 210.63 189.52
  C 208.83 190.18 206.53 189.75 204.60 189.71
  A 0.61 0.61 0.0 0 0 203.99 190.43
  Q 204.08 190.89 203.69 191.12
  Q 203.27 191.37 202.79 191.21
  Q 201.27 190.70 199.66 190.72
  Q 199.02 190.73 198.81 191.34
  Q 198.33 192.73 196.96 192.04
  Q 194.97 191.03 194.03 192.79
  Q 193.77 193.30 193.25 193.06
  L 192.89 192.90
  Q 192.38 192.66 191.83 192.82
  Q 166.93 199.99 150.38 216.90
  Q 139.09 228.44 132.91 244.48
  Q 131.69 247.67 130.74 251.28
  C 128.94 258.10 128.65 264.87 128.61 271.96
  Q 128.61 272.57 129.22 272.53
  C 131.20 272.42 131.67 270.32 132.55 268.93
  A 1.37 1.36 15.6 0 1 133.66 268.31
  L 138.81 268.14
  Q 139.33 268.12 139.68 268.51
  Q 140.48 269.38 139.91 270.50
  Q 139.67 270.98 140.11 271.28
  Q 141.58 272.26 141.07 274.46
  C 140.49 277.00 140.20 279.57 140.15 282.18
  Q 139.82 301.35 138.56 321.13
  Q 138.43 323.10 138.04 324.48
  Q 137.57 326.14 138.27 327.47
  Q 138.71 328.30 137.77 328.19
  L 137.04 328.11
  A 0.52 0.52 0.0 0 0 136.46 328.67
  Q 136.60 330.28 137.34 331.72
  Q 137.59 332.20 137.36 332.69
  Q 137.20 333.05 136.80 333.09
  Q 136.52 333.12 136.32 332.94
  Q 136.28 332.91 136.25 332.87
  Q 135.75 332.33 135.77 333.09
  Q 135.94 340.77 135.79 348.31
  Q 135.78 348.77 136.24 348.82
  Q 136.52 348.85 136.78 348.72
  Q 137.91 348.14 137.43 349.27
  Z"
/>
<path id="logo" d="
  M 136.78 348.72
  Q 136.52 348.85 136.24 348.82
  Q 135.78 348.77 135.79 348.31
  Q 135.94 340.77 135.77 333.09
  Q 135.75 332.33 136.25 332.87
  Q 136.28 332.91 136.32 332.94
  Q 136.52 333.12 136.80 333.09
  Q 137.20 333.05 137.36 332.69
  Q 137.59 332.20 137.34 331.72
  Q 136.60 330.28 136.46 328.67
  A 0.52 0.52 0.0 0 1 137.04 328.11
  L 137.77 328.19
  Q 138.71 328.30 138.27 327.47
  Q 137.57 326.14 138.04 324.48
  Q 138.43 323.10 138.56 321.13
  Q 139.82 301.35 140.15 282.18
  C 140.20 279.57 140.49 277.00 141.07 274.46
  Q 141.58 272.26 140.11 271.28
  Q 139.67 270.98 139.91 270.50
  Q 140.48 269.38 139.68 268.51
  Q 139.33 268.12 138.81 268.14
  L 133.66 268.31
  A 1.37 1.36 15.6 0 0 132.55 268.93
  C 131.67 270.32 131.20 272.42 129.22 272.53
  Q 128.61 272.57 128.61 271.96
  C 128.65 264.87 128.94 258.10 130.74 251.28
  Q 131.69 247.67 132.91 244.48
  Q 139.09 228.44 150.38 216.90
  Q 166.93 199.99 191.83 192.82
  Q 192.38 192.66 192.89 192.90
  L 193.25 193.06
  Q 193.77 193.30 194.03 192.79
  Q 194.97 191.03 196.96 192.04
  Q 198.33 192.73 198.81 191.34
  Q 199.02 190.73 199.66 190.72
  Q 201.27 190.70 202.79 191.21
  Q 203.27 191.37 203.69 191.12
  Q 204.08 190.89 203.99 190.43
  A 0.61 0.61 0.0 0 1 204.60 189.71
  C 206.53 189.75 208.83 190.18 210.63 189.52
  Q 211.66 189.14 212.79 189.06
  Q 223.35 188.36 231.39 189.48
  Q 234.93 189.97 238.73 189.94
  Q 239.28 189.93 239.75 190.23
  C 240.21 190.53 240.58 190.77 241.15 190.81
  Q 246.11 191.09 251.00 191.88
  Q 256.99 192.86 263.00 193.78
  C 270.19 194.88 276.92 194.98 284.22 193.13
  Q 289.76 191.71 295.25 190.03
  Q 296.71 189.58 298.22 189.49
  Q 298.71 189.46 298.98 189.88
  C 300.27 191.88 302.52 195.37 305.14 192.12
  Q 306.94 189.89 309.12 188.44
  Q 309.50 188.18 309.54 187.73
  C 309.75 185.34 306.32 183.99 304.59 183.03
  Q 304.11 182.76 303.85 182.29
  Q 301.38 177.93 301.70 171.67
  C 301.90 167.51 305.54 163.90 309.27 163.23
  C 310.65 162.98 311.27 162.13 312.83 161.93
  Q 314.98 161.66 316.31 162.67
  A 0.80 0.79 50.9 0 0 317.14 162.76
  Q 317.51 162.58 317.92 162.65
  Q 318.40 162.73 318.66 163.14
  C 320.95 166.78 325.30 173.51 330.12 169.45
  Q 330.50 169.12 330.97 168.93
  L 335.85 166.91
  Q 336.36 166.69 336.82 167.01
  L 337.15 167.24
  Q 337.88 167.73 338.02 166.86
  L 338.14 166.20
  Q 338.27 165.41 339.04 165.58
  L 341.77 166.19
  Q 342.51 166.35 342.67 165.61
  Q 342.72 165.37 342.90 165.18
  Q 343.19 164.88 343.61 164.88
  L 357.22 164.91
  Q 357.83 164.91 358.14 165.44
  Q 358.74 166.48 359.90 166.02
  Q 360.47 165.79 361.05 165.94
  C 374.75 169.48 387.17 176.90 387.07 192.29
  C 387.05 196.10 386.30 201.02 389.46 204.10
  Q 390.50 205.10 391.20 206.26
  C 391.98 207.52 393.34 208.05 393.92 209.35
  Q 394.85 211.45 395.62 213.81
  Q 395.81 214.42 395.18 214.38
  Q 390.29 214.07 385.31 214.30
  Q 383.91 214.37 384.02 215.81
  Q 384.06 216.37 383.55 216.60
  Q 383.30 216.71 383.03 216.68
  Q 382.36 216.59 382.48 217.25
  Q 382.62 218.08 383.50 218.17
  A 0.99 0.98 -3.7 0 1 384.36 218.92
  Q 384.97 221.49 387.88 221.66
  Q 391.92 221.90 394.82 221.52
  Q 396.19 221.34 395.65 222.61
  Q 392.92 229.05 387.42 231.98
  Q 385.11 233.21 382.44 233.18
  Q 374.25 233.12 364.84 233.38
  C 361.30 233.47 359.92 234.85 357.74 237.53
  Q 334.96 265.49 317.27 303.54
  Q 310.31 318.52 308.11 330.13
  Q 307.96 330.90 307.36 331.37
  Q 306.94 331.70 307.11 332.19
  Q 307.66 333.84 306.60 334.98
  Q 306.24 335.37 306.23 335.90
  L 306.12 339.95
  A 1.65 1.64 -20.6 0 1 305.59 341.11
  Q 304.08 342.47 305.42 343.85
  A 2.51 2.50 24.1 0 1 306.13 345.69
  Q 305.97 349.31 307.98 351.11
  Q 309.66 352.61 312.83 354.17
  Q 314.91 355.20 319.26 358.30
  A 1.80 1.78 -84.2 0 1 319.81 358.98
  L 320.87 361.36
  Q 321.08 361.84 321.50 362.15
  Q 321.79 362.37 322.11 362.39
  Q 322.98 362.45 322.44 363.13
  Q 322.29 363.32 322.30 363.57
  Q 322.34 364.10 322.87 364.15
  Q 323.64 364.22 323.34 364.94
  Q 322.63 366.72 323.31 368.52
  Q 323.54 369.13 322.89 369.14
  Q 310.28 369.32 295.56 369.22
  Q 290.24 369.18 282.37 367.75
  Q 276.82 366.74 274.15 364.80
  Q 269.26 361.24 267.00 356.74
  Q 266.13 354.99 264.94 353.51
  A 0.90 0.88 34.7 0 1 264.78 352.67
  L 265.08 351.77
  Q 265.33 351.01 264.54 350.92
  Q 264.35 350.90 264.18 350.82
  Q 263.67 350.59 263.81 350.04
  Q 264.32 348.17 263.47 346.62
  Q 263.25 346.22 263.35 345.77
  Q 263.68 344.12 263.45 342.66
  Q 261.98 333.30 261.87 327.43
  Q 261.77 321.78 261.24 315.84
  C 260.80 310.79 261.43 305.76 260.43 300.69
  Q 259.69 296.92 259.83 292.77
  C 259.89 290.97 259.07 289.53 258.97 287.76
  Q 258.76 283.99 257.66 280.29
  Q 257.50 279.73 256.93 279.59
  Q 253.45 278.71 250.04 279.81
  Q 249.36 280.03 249.10 280.69
  Q 248.68 281.78 248.08 282.79
  C 246.82 284.91 247.93 287.96 248.98 289.95
  A 1.80 1.76 -54.0 0 1 249.15 291.12
  C 248.22 295.95 249.89 299.37 250.16 303.61
  Q 250.26 305.22 248.64 305.22
  Q 230.68 305.22 214.26 305.06
  Q 210.26 305.02 206.19 305.37
  Q 205.65 305.41 205.24 305.77
  Q 203.45 307.35 202.31 309.79
  C 199.30 316.29 195.59 322.89 190.90 328.29
  C 186.71 333.11 183.24 337.83 180.77 343.94
  Q 180.49 344.62 180.77 345.31
  L 183.13 351.31
  Q 183.48 352.19 184.36 352.54
  C 188.35 354.12 194.13 356.74 196.36 360.49
  Q 197.61 362.60 198.93 364.59
  Q 199.24 365.04 199.08 365.57
  Q 198.63 367.08 199.28 368.56
  Q 199.55 369.16 198.89 369.16
  Q 180.58 369.23 164.22 369.19
  Q 161.61 369.19 159.21 369.08
  C 156.90 368.97 154.92 368.04 152.68 367.70
  Q 152.18 367.63 151.81 367.98
  Q 151.56 368.23 151.24 368.34
  Q 150.76 368.51 150.38 368.19
  Q 148.47 366.59 146.28 365.49
  C 142.78 363.72 141.51 360.58 139.68 357.42
  Q 139.47 357.05 139.07 356.91
  Q 138.24 356.60 138.72 355.78
  Q 139.22 354.93 138.23 354.88
  L 137.80 354.85
  Q 136.87 354.80 137.47 354.09
  Q 137.95 353.53 138.17 352.90
  Q 138.45 352.09 137.61 352.28
  Q 137.26 352.36 136.93 352.31
  Q 136.19 352.20 136.48 351.51
  L 137.43 349.27
  Q 137.91 348.14 136.78 348.72
  Z
  M 361.14 190.66
  Q 359.91 189.72 358.53 190.79
  Q 354.84 193.66 356.52 197.69
  Q 356.69 198.10 357.06 198.36
  Q 358.28 199.22 359.13 200.35
  A 0.93 0.93 0.0 0 0 360.68 200.27
  L 361.22 199.34
  Q 361.50 198.86 361.99 198.60
  Q 363.36 197.89 363.66 196.38
  C 364.18 193.73 363.06 192.15 361.14 190.66
  Z"
/>
<path fill="#26385b" d="
  M 361.14 190.66
  C 363.06 192.15 364.18 193.73 363.66 196.38
  Q 363.36 197.89 361.99 198.60
  Q 361.50 198.86 361.22 199.34
  L 360.68 200.27
  A 0.93 0.93 0.0 0 1 359.13 200.35
  Q 358.28 199.22 357.06 198.36
  Q 356.69 198.10 356.52 197.69
  Q 354.84 193.66 358.53 190.79
  Q 359.91 189.72 361.14 190.66
  Z"
/>
</svg>
